<?xml version="1.0" standalone="no"?>
<!DOCTYPE svg PUBLIC "-//W3C//DTD SVG 20010904//EN"
 "http://www.w3.org/TR/2001/REC-SVG-20010904/DTD/svg10.dtd">
<svg version="1.0" xmlns="http://www.w3.org/2000/svg"
 width="700.000000pt" height="700.000000pt" viewBox="0 0 700.000000 700.000000"
 preserveAspectRatio="xMidYMid meet">
<metadata>
Created by potrace 1.14, written by Peter Selinger 2001-2017
</metadata>
<g transform="translate(0.000000,700.000000) scale(0.100000,-0.100000)"
fill="#000000" stroke="none">
<path d="M3602 6779 c-80 -10 -135 -19 -139 -23 -2 -1 48 -18 109 -36 211 -61
417 -152 538 -238 211 -149 367 -410 429 -720 27 -130 29 -148 30 -211 1 -72
19 -57 54 46 79 228 50 500 -77 728 -108 192 -262 319 -484 399 -40 14 -85 28
-100 31 -132 27 -260 35 -360 24z"/>
<path d="M2579 6381 c-124 -25 -255 -143 -305 -276 -26 -68 -25 -190 1 -270
33 -102 99 -183 406 -497 163 -167 370 -379 460 -472 90 -93 208 -214 262
-270 243 -249 226 -238 -64 46 -96 93 -540 526 -844 823 -662 645 -668 651
-785 697 -43 17 -77 22 -155 22 -94 1 -105 -1 -168 -32 -88 -44 -165 -120
-208 -208 -32 -65 -34 -74 -34 -174 1 -97 3 -110 33 -174 43 -92 84 -144 247
-311 311 -318 758 -777 851 -872 54 -56 230 -236 390 -400 161 -164 296 -302
300 -308 10 -11 -128 119 -221 210 -33 33 -212 207 -396 386 -183 180 -388
379 -454 444 -309 301 -356 345 -420 380 -36 21 -87 44 -112 51 -54 16 -161
21 -213 9 -58 -13 -144 -61 -192 -108 -98 -95 -140 -193 -133 -315 7 -135 59
-238 189 -375 99 -104 514 -533 728 -752 86 -88 175 -180 198 -205 23 -25 108
-113 188 -195 195 -200 233 -246 93 -110 -63 61 -126 121 -141 135 -29 27
-395 379 -520 500 -147 143 -265 196 -414 188 -68 -3 -96 -10 -148 -36 -235
-116 -295 -345 -150 -572 40 -63 373 -394 902 -900 60 -57 404 -389 540 -520
31 -30 134 -129 230 -220 95 -91 194 -185 220 -210 41 -40 295 -278 324 -305
270 -248 401 -335 671 -447 82 -34 277 -92 361 -107 32 -6 70 -13 84 -16 101
-20 384 -26 495 -11 339 44 604 153 885 363 227 170 431 396 577 638 52 86
133 246 133 262 0 3 6 19 14 36 16 38 28 68 31 82 2 6 14 48 28 95 53 177 72
319 71 550 0 193 -14 321 -59 520 -40 177 -157 486 -265 700 -17 35 -135 320
-176 429 -25 64 -49 125 -54 136 -18 38 -119 351 -143 445 -67 252 -78 378
-49 520 11 52 30 142 42 200 50 240 6 370 -156 461 -50 28 -68 33 -133 34
-147 3 -278 -47 -377 -143 -70 -68 -93 -100 -138 -189 -65 -129 -80 -200 -81
-368 0 -136 9 -296 19 -351 2 -11 7 -58 11 -105 4 -46 9 -93 11 -103 4 -20 13
-121 20 -216 4 -71 -11 -120 -37 -120 -37 0 -63 22 -249 206 -102 101 -264
261 -361 356 -98 95 -350 342 -560 549 -661 648 -693 679 -748 716 -101 67
-240 97 -352 74z"/>
<path d="M3670 6293 c-47 -6 -115 -27 -143 -43 l-27 -17 42 -12 c111 -32 321
-155 422 -246 32 -28 171 -194 246 -292 47 -62 91 -112 98 -112 18 -1 8 188
-13 259 -81 266 -299 449 -550 463 -27 2 -61 2 -75 0z"/>
<path d="M881 2808 c-4 -13 -9 -58 -10 -100 -5 -197 124 -393 324 -493 108
-54 199 -74 320 -71 96 3 195 22 195 37 0 5 -73 45 -162 89 -197 96 -282 144
-350 198 -67 51 -191 189 -246 270 -57 86 -63 92 -71 70z"/>
<path d="M374 2673 c18 -204 74 -367 181 -528 125 -188 292 -307 515 -367 68
-18 112 -22 215 -23 72 0 153 4 180 8 69 11 189 53 256 88 59 32 138 95 106
85 -34 -11 -151 -19 -262 -19 -328 0 -587 88 -784 266 -31 28 -153 166 -179
202 -45 63 -118 180 -162 263 -30 56 -59 102 -64 102 -5 0 -6 -35 -2 -77z"/>
</g>
</svg>
